<svg width="1014" height="223" viewBox="0 0 1014 223" fill="none" xmlns="http://www.w3.org/2000/svg">
<path d="M919.537 53.8034C918.256 53.4814 917.295 53.4814 916.013 53.4814H914.412H908.966H892.95C890.067 53.4814 887.504 54.1253 885.262 55.4131C883.981 56.0569 883.02 56.7008 882.059 57.6666C881.098 58.6324 880.137 59.2763 879.496 60.564C877.254 63.4614 875.973 67.0027 875.973 70.8659V86.3188V86.9627V93.0795C875.973 93.0795 876.293 99.5182 876.293 100.806C877.895 108.532 884.942 114.005 892.95 114.005H916.013C916.654 114.005 916.974 114.005 917.615 114.005C918.896 114.005 920.178 113.683 921.459 113.039C922.74 112.396 924.342 112.074 925.623 111.108C926.264 110.464 927.225 109.82 927.866 109.176C928.827 108.21 929.787 107.245 930.428 106.279C931.069 104.991 931.709 104.025 932.35 102.738C932.991 100.806 933.311 99.1962 933.311 96.9427V70.8659C933.311 62.1737 927.545 55.4131 919.537 53.8034Z" fill="#00FFCC"/>
<path d="M879.546 49.7647C883.377 47.1939 887.848 45.9086 892.956 45.9086H915.946C916.265 45.9086 916.266 45.9086 916.585 45.9086L918.501 44.3019C924.567 38.5177 932.231 34.983 940.213 34.3403L914.669 9.27575C909.56 3.81296 902.855 0.920898 895.192 0.920898C887.848 0.920898 880.823 3.81296 875.714 8.95441L850.489 34.019C859.43 34.3403 867.732 37.8751 874.118 44.3019L879.546 49.7647Z" fill="white"/>
<path d="M828.704 131.158L847.595 112.582L850.476 110.02L853.358 107.458L868.086 92.7249V70.6258C868.086 64.8608 870.327 59.416 873.849 54.9322L868.406 49.8077C863.283 44.6833 856.24 41.8008 848.876 41.8008C846.314 41.8008 843.753 42.1211 841.511 42.7616C837.349 44.0427 833.187 45.9644 829.985 49.1672C829.665 49.4874 829.345 49.4874 829.345 49.8077L820.38 58.7755L788.042 90.8032C777.156 101.372 777.156 118.667 788.042 129.557L818.779 159.663C818.779 158.702 818.459 157.421 818.459 156.46C818.139 146.532 821.981 137.564 828.704 131.158Z" fill="white"/>
<path d="M1005.13 90.1655L969.783 55.4243L963.679 49.3124C961.751 47.3824 959.823 46.0957 957.574 44.809C955.004 43.2006 952.112 42.2355 948.899 41.5922C947.293 41.2705 945.687 41.2705 944.08 41.2705C937.654 41.2705 931.55 43.5223 926.409 47.7041C935.405 51.5642 941.51 60.2495 941.51 70.2215V96.2774C941.51 99.4942 940.867 102.389 939.582 105.284C939.261 106.249 938.939 106.893 938.297 107.858L940.225 109.788L943.116 112.361L962.072 131.019C968.819 137.774 972.675 146.459 972.675 155.788C972.675 157.718 972.354 159.326 972.354 161.256L1005.45 128.767C1010.59 123.62 1013.48 116.543 1013.48 109.466C1013.16 102.389 1010.27 95.3124 1005.13 90.1655Z" fill="white"/>
<path d="M937.741 117.527L934.847 114.958L933.561 113.674C931.311 115.922 928.417 117.848 925.202 118.811C924.88 118.811 924.559 119.132 924.237 119.132C922.951 119.453 921.344 120.096 919.736 120.096C918.45 120.417 917.164 120.417 915.878 120.417H915.235H892.73C885.336 120.417 878.906 117.206 874.405 112.39C872.797 110.784 871.511 108.858 870.547 106.61C869.903 105.005 869.261 103.399 868.618 101.794L867.01 103.399L858.329 111.747L855.436 114.316L852.542 116.885L833.574 135.507C828.43 140.645 825.536 147.709 825.536 154.772C825.536 160.231 827.144 165.368 830.037 169.863C831.002 171.469 832.288 172.753 833.574 174.037L838.396 178.532L843.54 183.67L875.048 214.815C880.192 219.952 887.265 222.842 894.659 222.842C902.054 222.842 909.127 219.952 914.271 214.815L945.778 183.991L950.601 179.496L956.066 174.037C956.388 173.716 956.709 173.395 957.031 172.753C961.532 167.616 964.104 161.515 964.104 154.451C964.104 147.066 961.21 140.324 956.066 135.186L937.741 117.527Z" fill="white"/>
<path d="M0.600586 30.0587H41.0176C58.5509 30.0587 71.8299 32.6371 80.8544 37.794C90.0078 42.9509 94.5846 51.8465 94.5846 64.4808C94.5846 72.474 92.3929 79.1779 88.0096 84.5926C83.7551 90.0073 77.6313 93.4238 69.6382 94.8419V95.8088C75.0529 96.8402 79.9519 98.5806 84.3353 101.03C88.8475 103.351 92.3929 106.767 94.9713 111.279C97.5498 115.663 98.839 121.464 98.839 128.684C98.839 141.318 94.4556 151.052 85.689 157.885C76.9223 164.717 65.0615 168.134 50.1065 168.134H0.600586V30.0587ZM21.4859 87.6867H44.4985C55.3279 87.6867 62.7409 85.9463 66.7375 82.4654C70.863 78.9845 72.9257 73.8276 72.9257 66.9948C72.9257 60.1619 70.4117 55.2629 65.3838 52.2977C60.4847 49.2036 52.7494 47.6565 42.1779 47.6565H21.4859V87.6867ZM21.4859 104.704V150.729H46.819C57.9063 150.729 65.6416 148.538 70.025 144.154C74.5372 139.771 76.7934 133.97 76.7934 126.75C76.7934 120.175 74.4728 114.889 69.8316 110.893C65.3193 106.767 57.1972 104.704 45.4654 104.704H21.4859Z" fill="white"/>
<path d="M136.984 168.134H116.485V21.1631H136.984V168.134Z" fill="white"/>
<path d="M248.202 63.9007V168.134H231.764L228.863 154.404H227.897C224.545 159.818 219.903 163.815 213.973 166.393C208.043 168.843 201.79 170.068 195.215 170.068C182.967 170.068 173.62 167.103 167.174 161.172C160.728 155.113 157.505 145.444 157.505 132.165V63.9007H178.197V129.071C178.197 137.193 179.873 143.252 183.225 147.249C186.706 151.245 192.056 153.243 199.276 153.243C209.976 153.243 217.389 150.149 221.515 143.961C225.64 137.644 227.703 128.555 227.703 116.694V63.9007H248.202Z" fill="white"/>
<path d="M309.575 61.9668C323.241 61.9668 334.006 66.2213 341.87 74.7301C349.735 83.11 353.667 94.584 353.667 109.152V120.368H283.662C283.92 131.069 286.692 139.255 291.978 144.928C297.392 150.601 304.934 153.437 314.603 153.437C321.307 153.437 327.238 152.857 332.395 151.696C337.68 150.407 343.095 148.538 348.639 146.088V163.106C343.353 165.555 338.067 167.296 332.781 168.327C327.496 169.488 321.178 170.068 313.83 170.068C303.774 170.068 294.878 168.069 287.143 164.073C279.408 160.076 273.348 154.146 268.965 146.282C264.711 138.417 262.583 128.619 262.583 116.888C262.583 105.156 264.517 95.2287 268.385 87.1066C272.382 78.9845 277.861 72.7963 284.822 68.5418C291.913 64.1585 300.164 61.9668 309.575 61.9668ZM309.575 77.8242C302.227 77.8242 296.297 80.2093 291.784 84.9794C287.401 89.7495 284.822 96.5179 284.049 105.285H333.168C333.039 97.1625 331.041 90.5875 327.173 85.5595C323.435 80.4026 317.569 77.8242 309.575 77.8242Z" fill="white"/>
<path d="M409.54 30.0587C427.202 30.0587 440.223 33.3462 448.603 39.9212C457.112 46.4962 461.366 56.4877 461.366 69.8955C461.366 76.9862 460.077 82.9811 457.498 87.8801C454.92 92.6502 451.504 96.5823 447.249 99.6765C443.124 102.771 438.805 105.156 434.292 106.832L472.969 168.134H448.99L415.728 112.246H391.748V168.134H370.863V30.0587H409.54ZM408.186 47.8499H391.748V94.8419H409.153C419.853 94.8419 427.653 92.8436 432.552 88.847C437.451 84.7215 439.901 78.6622 439.901 70.6691C439.901 62.4181 437.322 56.5521 432.165 53.0712C427.008 49.5903 419.015 47.8499 408.186 47.8499Z" fill="white"/>
<path d="M570.072 115.921C570.072 133.196 565.624 146.54 556.728 155.951C547.833 165.362 535.843 170.068 520.759 170.068C511.348 170.068 502.968 168.005 495.62 163.88C488.4 159.625 482.663 153.501 478.409 145.508C474.283 137.386 472.22 127.524 472.22 115.921C472.22 98.6451 476.604 85.3661 485.37 76.0838C494.137 66.6725 506.127 61.9668 521.339 61.9668C530.88 61.9668 539.26 64.094 546.479 68.3485C553.828 72.474 559.565 78.5333 563.69 86.5264C567.945 94.5196 570.072 104.318 570.072 115.921ZM493.299 115.921C493.299 127.652 495.491 136.806 499.874 143.381C504.386 149.956 511.477 153.243 521.146 153.243C530.815 153.243 537.841 149.956 542.225 143.381C546.737 136.806 548.993 127.652 548.993 115.921C548.993 104.06 546.737 94.9708 542.225 88.6536C537.841 82.2076 530.751 78.9845 520.953 78.9845C511.284 78.9845 504.257 82.2076 499.874 88.6536C495.491 94.9708 493.299 104.06 493.299 115.921Z" fill="white"/>
<path d="M632.319 170.068C617.458 169.402 606.277 165.813 597.511 157.304C588.744 148.667 581.833 135.13 581.833 116.694C581.833 103.802 584.286 92.8082 591.833 82.2773C602.583 67.2773 615.041 61.9668 632.319 61.9668C642.071 61.9668 652.458 63.9007 662.874 67.9617L656.686 84.5926C649.583 81.6523 643.958 78.9845 632.9 79.5273C614.917 80.4101 601.833 93.7773 601.833 116.694C601.833 135.277 613.396 152.857 632.9 152.857C642.587 152.857 652.052 151.218 660.553 146.527V164.777C651.333 169.152 642.148 170.068 632.319 170.068Z" fill="white"/>
<path d="M696.761 21.1631V94.6485C696.761 97.2269 696.632 100.321 696.375 103.931C696.117 107.541 695.923 110.764 695.794 113.6H696.375C697.793 111.666 699.726 109.152 702.176 106.058C704.754 102.835 707.011 100.192 708.944 98.1294L740.852 63.9007H764.639L722.675 108.572L767.346 168.134H743.173L708.751 121.529L696.761 131.585V168.134H676.456V21.1631H696.761Z" fill="white"/>
</svg>
